<svg id="Layer_1" data-name="Layer 1" xmlns="http://www.w3.org/2000/svg" viewBox="0 0 175.06 144.04"><defs><style>.cls-1{fill:none;stroke:#fff;stroke-miterlimit:10;stroke-width:5px;}.cls-1,.cls-2,.cls-3,.cls-4,.cls-5{fill-rule:evenodd;}.cls-2{fill:#33669a;}.cls-4{fill:#4588c6;}.cls-5{fill:#fff;}</style></defs><title>parrot_stroke</title><path class="cls-1" d="M908.83,488.08l-.51,0c-.48,0-1,0-1.43.05-8.72.15-36.56.32-42.73-3.17-4.77-2.7,9.26,7.87,21.63,12.74a.06.06,0,0,1,0,.09,46.09,46.09,0,0,0-16.21,33.9,0,0,0,0,1-.09,0c-13.31-16.12-38.68-31.8-86.72-37.61a.06.06,0,0,0-.06.06c0,5,2.37,11.13,6.22,17.75,0,0,0,.08,0,.08q-8.85.54-18.76,1.89a.05.05,0,0,0,0,.07c4.46,17.18,41.72,40.4,64.39,53.15a.05.05,0,0,1,0,.08c-17.72,19.13-35.48,41.92-35.43,56.32a.06.06,0,0,0,.06.06c84.32-10.2,106-47.69,111.18-71.43a.05.05,0,0,1,.06,0c11.91.51,17.32-2.77,19.32-4.54,0,0,.08,0,.09,0a53.55,53.55,0,0,1,.34,10,.06.06,0,0,0,.09,0c1.58-1.77,21.27-24.36.43-45.82,0,0,0,0,0,0,0-.45.06-.89.06-1.35a22.37,22.37,0,0,0-21.2-22.34Z" transform="translate(-767.59 -482)"/><path class="cls-2" d="M883.39,576.17s12.5-68.43-100.67-82.08C782.54,519.78,846,575.4,846,575.4" transform="translate(-767.59 -482)"/><path class="cls-3" d="M930.54,511.72C928.07,523,921,527.34,921,527.34h0a35.26,35.26,0,0,1-9.91,4.14s1.41,17.93-1.87,20.54c12.91.8,18.58-2.74,20.59-4.55a54.55,54.55,0,0,1,.34,10.27S952.4,534.09,930.54,511.72Z" transform="translate(-767.59 -482)"/><path class="cls-4" d="M930.69,510.43a22.37,22.37,0,0,0-21.2-22.34l0,0-.69,0-.51,0c-.48,0-1,0-1.43.05-8.72.15-36.56.32-42.73-3.17-4.78-2.71,9.32,7.91,21.71,12.77a45.77,45.77,0,0,0-16.26,35.09l-.17.15c-16-14.53-45.35-26.52-99.37-19.07,4.4,17.2,41.77,40.48,64.47,53.24-17.75,19.17-35.58,42-35.47,56.44,119.48-14.44,113.35-83.65,112.36-91A22.38,22.38,0,0,0,930.69,510.43Z" transform="translate(-767.59 -482)"/><path class="cls-3" d="M911.76,501a7.31,7.31,0,1,1-7.31,7.31A7.31,7.31,0,0,1,911.76,501Z" transform="translate(-767.59 -482)"/><path class="cls-5" d="M910.26,503.55a3.23,3.23,0,1,1-3.23,3.22A3.22,3.22,0,0,1,910.26,503.55Z" transform="translate(-767.59 -482)"/></svg>