<svg id="Layer_1" data-name="Layer 1" xmlns="http://www.w3.org/2000/svg" viewBox="0 0 391.19 144.04"><defs><style>.cls-1{fill:none;}.cls-1,.cls-6{stroke:#fff;stroke-width:5px;}.cls-1,.cls-6,.cls-7{stroke-miterlimit:10;}.cls-1,.cls-2,.cls-3,.cls-4,.cls-5{fill-rule:evenodd;}.cls-2{fill:#33669a;}.cls-4{fill:#4588c6;}.cls-5{fill:#fff;}.cls-7{stroke:#231f20;}</style></defs><title>parrot_text_stroke</title><path class="cls-1" d="M908.83,488.08l-.51,0c-.48,0-1,0-1.43.05-8.72.15-36.56.32-42.73-3.17-4.77-2.7,9.26,7.87,21.63,12.74a.06.06,0,0,1,0,.09,46.09,46.09,0,0,0-16.21,33.9,0,0,0,0,1-.09,0c-13.31-16.12-38.68-31.8-86.72-37.61a.06.06,0,0,0-.06.06c0,5,2.37,11.13,6.22,17.75,0,0,0,.08,0,.08q-8.85.54-18.76,1.89a.05.05,0,0,0,0,.07c4.46,17.18,41.72,40.4,64.39,53.15a.05.05,0,0,1,0,.08c-17.72,19.13-35.48,41.92-35.43,56.32a.06.06,0,0,0,.06.06c84.32-10.2,106-47.69,111.18-71.43a.05.05,0,0,1,.06,0c11.91.51,17.32-2.77,19.32-4.54,0,0,.08,0,.09,0a53.55,53.55,0,0,1,.34,10,.06.06,0,0,0,.09,0c1.58-1.77,21.27-24.36.43-45.82,0,0,0,0,0,0,0-.45.06-.89.06-1.35a22.37,22.37,0,0,0-21.2-22.34Z" transform="translate(-767.59 -482)"/><path class="cls-2" d="M883.39,576.17s12.5-68.43-100.67-82.08C782.54,519.78,846,575.4,846,575.4" transform="translate(-767.59 -482)"/><path class="cls-3" d="M930.54,511.72C928.07,523,921,527.34,921,527.34h0a35.26,35.26,0,0,1-9.91,4.14s1.41,17.93-1.87,20.54c12.91.8,18.58-2.74,20.59-4.55a54.55,54.55,0,0,1,.34,10.27S952.4,534.09,930.54,511.72Z" transform="translate(-767.59 -482)"/><path class="cls-4" d="M930.69,510.43a22.37,22.37,0,0,0-21.2-22.34l0,0-.69,0-.51,0c-.48,0-1,0-1.43.05-8.72.15-36.56.32-42.73-3.17-4.78-2.71,9.32,7.91,21.71,12.77a45.77,45.77,0,0,0-16.26,35.09l-.17.15c-16-14.53-45.35-26.52-99.37-19.07,4.4,17.2,41.77,40.48,64.47,53.24-17.75,19.17-35.58,42-35.47,56.44,119.48-14.44,113.35-83.65,112.36-91A22.38,22.38,0,0,0,930.69,510.43Z" transform="translate(-767.59 -482)"/><path class="cls-3" d="M911.76,501a7.31,7.31,0,1,1-7.31,7.31A7.31,7.31,0,0,1,911.76,501Z" transform="translate(-767.59 -482)"/><path class="cls-5" d="M910.26,503.55a3.23,3.23,0,1,1-3.23,3.22A3.22,3.22,0,0,1,910.26,503.55Z" transform="translate(-767.59 -482)"/><path class="cls-6" d="M968,539.17l-25,36.61h-1.37l24.9-36.61Z" transform="translate(-767.59 -482)"/><path class="cls-6" d="M973.38,546.39l.55-4.44h-.49v-3.81h1.42V542l-.71,4.44Z" transform="translate(-767.59 -482)"/><path class="cls-6" d="M995.82,576.3a11.56,11.56,0,0,1-3.61-.55,14.49,14.49,0,0,1-5.86-3.55,18.9,18.9,0,0,1-2.13-2.56v17.12h-1.09V549h1.09v5.67a12,12,0,0,1,2.13-2.45,16.49,16.49,0,0,1,2.71-1.93,13.68,13.68,0,0,1,3-1.27,12.2,12.2,0,0,1,3.23-.43,12.55,12.55,0,0,1,5.53,1.21,14.06,14.06,0,0,1,4.32,3.17,14.53,14.53,0,0,1,2.82,4.43,13.17,13.17,0,0,1,1,5.06,14.69,14.69,0,0,1-1,5.23,13.94,13.94,0,0,1-2.69,4.41,12.72,12.72,0,0,1-4.16,3A12.54,12.54,0,0,1,995.82,576.3Zm0-1a11,11,0,0,0,5-1.11,12.34,12.34,0,0,0,3.81-2.92,13.47,13.47,0,0,0,3.28-8.76,12.23,12.23,0,0,0-1-4.85,13.47,13.47,0,0,0-2.68-4.1,13,13,0,0,0-4-2.84,11.76,11.76,0,0,0-4.93-1.05,10.79,10.79,0,0,0-3.56.67,14.82,14.82,0,0,0-3.55,1.8,12,12,0,0,0-2.77,2.63,5.75,5.75,0,0,0-1.23,3.1v9.64a13.7,13.7,0,0,0,2,3.07A14,14,0,0,0,988.9,573a14.47,14.47,0,0,0,3.26,1.65A11,11,0,0,0,995.82,575.27Z" transform="translate(-767.59 -482)"/><path class="cls-6" d="M1022.86,576.3a10.05,10.05,0,0,1-3.61-.65,9.21,9.21,0,0,1-2.93-1.75,8.17,8.17,0,0,1-1.94-2.61,7.23,7.23,0,0,1-.71-3.19,5.89,5.89,0,0,1,.84-3.1,7.64,7.64,0,0,1,2.41-2.39,12.91,12.91,0,0,1,3.72-1.58,19,19,0,0,1,4.74-.56,29.88,29.88,0,0,1,4,.28,34.25,34.25,0,0,1,3.88.75,14.81,14.81,0,0,1,1.26-5.11,8.32,8.32,0,0,0-3.09-4.92,9.37,9.37,0,0,0-5.88-1.83,13,13,0,0,0-4.44.85,22.46,22.46,0,0,0-4.76,2.45l-.65-.83q5.46-3.51,9.85-3.5a10.89,10.89,0,0,1,6.18,1.67,9,9,0,0,1,3.56,4.72,13.24,13.24,0,0,1,4.76-4.64,12.93,12.93,0,0,1,6.62-1.75,13.27,13.27,0,0,1,5.34,1.08,13.56,13.56,0,0,1,4.32,2.94,14.14,14.14,0,0,1,2.93,4.38,13.5,13.5,0,0,1,1.1,5.42V563h-26a13.72,13.72,0,0,0,4,8.72,12.67,12.67,0,0,0,3.91,2.6,11.67,11.67,0,0,0,4.68,1,12.22,12.22,0,0,0,3.2-.42,12.7,12.7,0,0,0,2.93-1.16,10.6,10.6,0,0,0,2.41-1.78,8.15,8.15,0,0,0,1.64-2.27l1,.26a8.38,8.38,0,0,1-1.72,2.55,11.55,11.55,0,0,1-2.63,2,14.94,14.94,0,0,1-3.28,1.34,14,14,0,0,1-3.64.49,12.8,12.8,0,0,1-6.52-1.71,14,14,0,0,1-4.81-4.53,9.23,9.23,0,0,1-2.33,2.83,13.34,13.34,0,0,1-3.2,1.94,17.61,17.61,0,0,1-3.64,1.11A19.42,19.42,0,0,1,1022.86,576.3Zm0-1a17,17,0,0,0,6.7-1.29,10,10,0,0,0,4.52-3.46,4.63,4.63,0,0,0,.82-1.8,13.26,13.26,0,0,1-1.59-6.14,28.66,28.66,0,0,0-7.93-1.08,18.67,18.67,0,0,0-4.35.46,11.16,11.16,0,0,0-3.34,1.34,6.76,6.76,0,0,0-2.16,2.09,4.89,4.89,0,0,0-.77,2.71,6.45,6.45,0,0,0,.63,2.81,7.27,7.27,0,0,0,1.72,2.29,7.73,7.73,0,0,0,2.58,1.52A9.14,9.14,0,0,0,1022.86,575.27Zm36.4-13.31a13.65,13.65,0,0,0-1.21-5,12.62,12.62,0,0,0-2.71-3.89,12.4,12.4,0,0,0-3.85-2.56,12.52,12.52,0,0,0-9.42,0,12.18,12.18,0,0,0-6.51,6.5,14.47,14.47,0,0,0-1.15,4.9Z" transform="translate(-767.59 -482)"/><path class="cls-6" d="M1079.07,550.05a11.66,11.66,0,0,0-7,2.47,12.13,12.13,0,0,0-4.08,6.35v16.91h-1.09V549H1068v6.91a13.44,13.44,0,0,1,4-4.67,10.88,10.88,0,0,1,5.28-2.14l1-.08.79,0Z" transform="translate(-767.59 -482)"/><path class="cls-6" d="M1094.56,576.3a13.11,13.11,0,0,1-5.34-1.09,13.56,13.56,0,0,1-4.32-2.94,14.08,14.08,0,0,1-2.93-4.38,13.45,13.45,0,0,1-1.09-5.41v-.57h26a13.7,13.7,0,0,0-1.28-4.82,13.53,13.53,0,0,0-2.77-3.9,13,13,0,0,0-3.91-2.6,11.83,11.83,0,0,0-4.68-1,12.27,12.27,0,0,0-3.2.41,13.16,13.16,0,0,0-2.93,1.16,10.83,10.83,0,0,0-2.41,1.78,8.3,8.3,0,0,0-1.64,2.27l-1-.26a7.5,7.5,0,0,1,1.7-2.55,11.57,11.57,0,0,1,2.65-2,13.93,13.93,0,0,1,3.29-1.34,13.43,13.43,0,0,1,3.64-.49,13,13,0,0,1,5.28,1.1,13.74,13.74,0,0,1,4.35,3,14.84,14.84,0,0,1,2.95,4.48,13.64,13.64,0,0,1-7.08,18A13.11,13.11,0,0,1,1094.56,576.3Zm-.06-1a11.92,11.92,0,0,0,4.71-.93,12.18,12.18,0,0,0,6.51-6.5,14.41,14.41,0,0,0,1.15-4.9H1082a13.64,13.64,0,0,0,1.2,4.95,12.8,12.8,0,0,0,2.71,3.89,12.33,12.33,0,0,0,3.86,2.56A11.91,11.91,0,0,0,1094.5,575.27Z" transform="translate(-767.59 -482)"/><path class="cls-6" d="M1125.76,574.54a8.1,8.1,0,0,1-1.51.78,16.75,16.75,0,0,1-1.61.49,8.89,8.89,0,0,1-2.08.23,5.47,5.47,0,0,1-3.45-1.14,3.57,3.57,0,0,1-1.48-3V550.05h-4.1v-1h4.1v-9.34h1.1V549h6.84v1h-6.84v21.86a2.9,2.9,0,0,0,1.25,2.3,4.45,4.45,0,0,0,2.58.8,8.17,8.17,0,0,0,1.75-.18,10.17,10.17,0,0,0,1.45-.42,6.48,6.48,0,0,0,1-.43,3.49,3.49,0,0,0,.41-.26Z" transform="translate(-767.59 -482)"/><path class="cls-6" d="M1154.05,539.17l-25,36.61h-1.37l24.9-36.61Z" transform="translate(-767.59 -482)"/><path class="cls-7" d="M968,539.56l-25,36.61h-1.37l24.9-36.61Z" transform="translate(-767.59 -482)"/><path class="cls-7" d="M973.38,546.78l.55-4.44h-.49v-3.81h1.42v3.81l-.71,4.44Z" transform="translate(-767.59 -482)"/><path class="cls-7" d="M995.82,576.69a11.86,11.86,0,0,1-3.61-.54A15,15,0,0,1,989,574.7a14.15,14.15,0,0,1-2.69-2.11,19.46,19.46,0,0,1-2.13-2.55v17.11h-1.09V549.41h1.09v5.67a12,12,0,0,1,2.13-2.45,16.49,16.49,0,0,1,2.71-1.93,13.68,13.68,0,0,1,3-1.27,12.2,12.2,0,0,1,3.23-.43,12.55,12.55,0,0,1,5.53,1.21,14.06,14.06,0,0,1,4.32,3.17,14.53,14.53,0,0,1,2.82,4.43,13.17,13.17,0,0,1,1,5.06,14.69,14.69,0,0,1-1,5.23,13.94,13.94,0,0,1-2.69,4.41,12.72,12.72,0,0,1-4.16,3A12.54,12.54,0,0,1,995.82,576.69Zm0-1a11,11,0,0,0,5-1.11,12.34,12.34,0,0,0,3.81-2.92,13.47,13.47,0,0,0,3.28-8.76,12.23,12.23,0,0,0-1-4.85,13.47,13.47,0,0,0-2.68-4.1,13,13,0,0,0-4-2.84,11.76,11.76,0,0,0-4.93-1.05,10.79,10.79,0,0,0-3.56.67,15.2,15.2,0,0,0-3.55,1.8,12,12,0,0,0-2.77,2.63,5.75,5.75,0,0,0-1.23,3.1v9.64a13.7,13.7,0,0,0,2,3.07,14,14,0,0,0,2.71,2.45,14.47,14.47,0,0,0,3.26,1.65A11,11,0,0,0,995.82,575.66Z" transform="translate(-767.59 -482)"/><path class="cls-7" d="M1022.86,576.69a10.05,10.05,0,0,1-3.61-.65,9.21,9.21,0,0,1-2.93-1.75,8.24,8.24,0,0,1-1.94-2.6,7.3,7.3,0,0,1-.71-3.2,5.89,5.89,0,0,1,.84-3.1,7.64,7.64,0,0,1,2.41-2.39,12.91,12.91,0,0,1,3.72-1.58,19,19,0,0,1,4.74-.56,29.88,29.88,0,0,1,4,.28,34.25,34.25,0,0,1,3.88.75,14.81,14.81,0,0,1,1.26-5.11,8.32,8.32,0,0,0-3.09-4.92,9.37,9.37,0,0,0-5.88-1.83,13,13,0,0,0-4.44.85,22.46,22.46,0,0,0-4.76,2.45l-.65-.83q5.46-3.5,9.85-3.5a11,11,0,0,1,6.18,1.67,9,9,0,0,1,3.56,4.72,13.32,13.32,0,0,1,4.76-4.64,12.93,12.93,0,0,1,6.62-1.75,13.27,13.27,0,0,1,5.34,1.08,13.56,13.56,0,0,1,4.32,2.94,14.14,14.14,0,0,1,2.93,4.38,13.5,13.5,0,0,1,1.1,5.42v.56h-26a13.72,13.72,0,0,0,4,8.72,12.67,12.67,0,0,0,3.91,2.6,11.67,11.67,0,0,0,4.68,1,12.22,12.22,0,0,0,3.2-.42,12.7,12.7,0,0,0,2.93-1.16,10.6,10.6,0,0,0,2.41-1.78,8.26,8.26,0,0,0,1.64-2.26l1,.25a8.54,8.54,0,0,1-1.72,2.56,11.81,11.81,0,0,1-2.63,2,14.94,14.94,0,0,1-3.28,1.34,14,14,0,0,1-3.64.49,12.89,12.89,0,0,1-6.52-1.7,14.13,14.13,0,0,1-4.81-4.54,9.23,9.23,0,0,1-2.33,2.83,13.34,13.34,0,0,1-3.2,1.94,17.61,17.61,0,0,1-3.64,1.11A19.42,19.42,0,0,1,1022.86,576.69Zm0-1a17,17,0,0,0,6.7-1.29,9.93,9.93,0,0,0,4.52-3.46,4.63,4.63,0,0,0,.82-1.8,13.26,13.26,0,0,1-1.59-6.14,28.66,28.66,0,0,0-7.93-1.08,18.67,18.67,0,0,0-4.35.46,11.16,11.16,0,0,0-3.34,1.34,6.76,6.76,0,0,0-2.16,2.09,4.89,4.89,0,0,0-.77,2.71,6.42,6.42,0,0,0,.63,2.81,7.27,7.27,0,0,0,1.72,2.29,7.73,7.73,0,0,0,2.58,1.52A8.91,8.91,0,0,0,1022.86,575.66Zm36.4-13.31a13.65,13.65,0,0,0-1.21-5,12.62,12.62,0,0,0-2.71-3.89,12.37,12.37,0,0,0-3.85-2.55,12.39,12.39,0,0,0-9.42,0,12.13,12.13,0,0,0-3.86,2.57,12.33,12.33,0,0,0-2.65,3.92,14.47,14.47,0,0,0-1.15,4.9Z" transform="translate(-767.59 -482)"/><path class="cls-7" d="M1079.07,550.44a11.61,11.61,0,0,0-7,2.48,12.06,12.06,0,0,0-4.08,6.34v16.91h-1.09V549.41H1068v6.91a13.44,13.44,0,0,1,4-4.67,10.88,10.88,0,0,1,5.28-2.14l1-.08.79,0Z" transform="translate(-767.59 -482)"/><path class="cls-7" d="M1094.56,576.69a13.11,13.11,0,0,1-5.34-1.09,13.7,13.7,0,0,1-4.32-2.93,14.25,14.25,0,0,1-2.93-4.39,13.45,13.45,0,0,1-1.09-5.41v-.57h26a13.7,13.7,0,0,0-1.28-4.82,13.35,13.35,0,0,0-2.77-3.89,12.88,12.88,0,0,0-3.91-2.61,11.83,11.83,0,0,0-4.68-1,12.71,12.71,0,0,0-3.2.41,13.16,13.16,0,0,0-2.93,1.16,10.83,10.83,0,0,0-2.41,1.78,8.3,8.3,0,0,0-1.64,2.27l-1-.26a7.5,7.5,0,0,1,1.7-2.55,11.57,11.57,0,0,1,2.65-2,13.93,13.93,0,0,1,3.29-1.34,13.43,13.43,0,0,1,3.64-.49,13,13,0,0,1,5.28,1.1,13.74,13.74,0,0,1,4.35,3,14.84,14.84,0,0,1,2.95,4.48,13.64,13.64,0,0,1-7.08,18A13.11,13.11,0,0,1,1094.56,576.69Zm-.06-1a11.92,11.92,0,0,0,4.71-.93,12.18,12.18,0,0,0,6.51-6.5,14.41,14.41,0,0,0,1.15-4.9H1082a13.64,13.64,0,0,0,1.2,4.95,12.8,12.8,0,0,0,2.71,3.89,12.33,12.33,0,0,0,3.86,2.56A11.91,11.91,0,0,0,1094.5,575.66Z" transform="translate(-767.59 -482)"/><path class="cls-7" d="M1125.76,574.93a8.1,8.1,0,0,1-1.51.78,16.75,16.75,0,0,1-1.61.49,8.89,8.89,0,0,1-2.08.23,5.47,5.47,0,0,1-3.45-1.14,3.57,3.57,0,0,1-1.48-3V550.44h-4.1v-1h4.1v-9.33h1.1v9.33h6.84v1h-6.84V572.3a2.9,2.9,0,0,0,1.25,2.3,4.45,4.45,0,0,0,2.58.8,8.17,8.17,0,0,0,1.75-.18,10.17,10.17,0,0,0,1.45-.42,6.48,6.48,0,0,0,1-.43,3.49,3.49,0,0,0,.41-.26Z" transform="translate(-767.59 -482)"/><path class="cls-7" d="M1154.05,539.56l-25,36.61h-1.37l24.9-36.61Z" transform="translate(-767.59 -482)"/></svg>